<mxfile host="app.diagrams.net" agent="Mozilla/5.0 (Windows NT 10.0; Win64; x64) AppleWebKit/537.36 (KHTML, like Gecko) Chrome/134.0.0.0 Safari/537.36 Edg/134.0.0.0" version="26.1.1">
  <diagram name="Page-1" id="iBlF3_Ep1_i4AvZprTDm">
    <mxGraphModel grid="1" page="1" gridSize="10" guides="1" tooltips="1" connect="1" arrows="1" fold="1" pageScale="1" pageWidth="850" pageHeight="1100" math="0" shadow="0">
      <root>
        <mxCell id="0" />
        <mxCell id="1" parent="0" />
        <mxCell id="HkIWx38XpdJMgbNnedaE-1" value="" style="rounded=0;whiteSpace=wrap;html=1;fillColor=#b0e3e6;strokeColor=#0e8088;" vertex="1" parent="1">
          <mxGeometry x="190" y="-490" width="520" height="640" as="geometry" />
        </mxCell>
        <mxCell id="HkIWx38XpdJMgbNnedaE-2" style="rounded=0;orthogonalLoop=1;jettySize=auto;html=1;exitX=0.5;exitY=0;exitDx=0;exitDy=0;entryX=0.5;entryY=0;entryDx=0;entryDy=0;strokeColor=default;curved=1;" edge="1" parent="1" target="HkIWx38XpdJMgbNnedaE-3">
          <mxGeometry relative="1" as="geometry">
            <mxPoint x="449.96" y="90" as="sourcePoint" />
            <mxPoint x="449.96" y="70" as="targetPoint" />
          </mxGeometry>
        </mxCell>
        <mxCell id="HkIWx38XpdJMgbNnedaE-3" value="" style="rounded=0;whiteSpace=wrap;html=1;fillColor=#d5e8d4;strokeColor=#82b366;" vertex="1" parent="1">
          <mxGeometry x="220" y="90" width="460" height="40" as="geometry" />
        </mxCell>
        <mxCell id="HkIWx38XpdJMgbNnedaE-4" value="" style="rounded=0;whiteSpace=wrap;html=1;fillColor=#f8cecc;strokeColor=#b85450;" vertex="1" parent="1">
          <mxGeometry x="285" y="40" width="330" height="30" as="geometry" />
        </mxCell>
        <mxCell id="HkIWx38XpdJMgbNnedaE-5" value="" style="endArrow=classic;startArrow=classic;html=1;rounded=0;entryX=0.5;entryY=1;entryDx=0;entryDy=0;exitX=0.5;exitY=0;exitDx=0;exitDy=0;strokeWidth=0;" edge="1" parent="1" source="HkIWx38XpdJMgbNnedaE-3" target="HkIWx38XpdJMgbNnedaE-4">
          <mxGeometry width="50" height="50" relative="1" as="geometry">
            <mxPoint x="370" y="60" as="sourcePoint" />
            <mxPoint x="420" y="10" as="targetPoint" />
          </mxGeometry>
        </mxCell>
        <mxCell id="HkIWx38XpdJMgbNnedaE-6" value="" style="whiteSpace=wrap;html=1;aspect=fixed;fillColor=#dae8fc;strokeColor=#6c8ebf;" vertex="1" parent="1">
          <mxGeometry x="230" y="-440" width="450" height="450" as="geometry" />
        </mxCell>
        <mxCell id="HkIWx38XpdJMgbNnedaE-7" value="" style="whiteSpace=wrap;html=1;aspect=fixed;fillColor=#e1d5e7;strokeColor=#9673a6;" vertex="1" parent="1">
          <mxGeometry x="259" y="-400" width="390" height="390" as="geometry" />
        </mxCell>
        <mxCell id="HkIWx38XpdJMgbNnedaE-8" value="" style="rounded=0;whiteSpace=wrap;html=1;fillColor=#bac8d3;strokeColor=#23445d;" vertex="1" parent="1">
          <mxGeometry x="285" y="-270" width="325" height="223" as="geometry" />
        </mxCell>
        <mxCell id="HkIWx38XpdJMgbNnedaE-9" value="" style="rounded=0;whiteSpace=wrap;html=1;" vertex="1" parent="1">
          <mxGeometry x="300" y="-370" width="120" height="60" as="geometry" />
        </mxCell>
        <mxCell id="HkIWx38XpdJMgbNnedaE-10" value="" style="rounded=0;whiteSpace=wrap;html=1;" vertex="1" parent="1">
          <mxGeometry x="490" y="-370" width="120" height="60" as="geometry" />
        </mxCell>
        <mxCell id="HkIWx38XpdJMgbNnedaE-11" value="" style="rounded=0;whiteSpace=wrap;html=1;" vertex="1" parent="1">
          <mxGeometry x="480" y="-235" width="120" height="60" as="geometry" />
        </mxCell>
        <mxCell id="HkIWx38XpdJMgbNnedaE-12" value="" style="rounded=0;whiteSpace=wrap;html=1;" vertex="1" parent="1">
          <mxGeometry x="480" y="-140" width="120" height="80" as="geometry" />
        </mxCell>
        <mxCell id="HkIWx38XpdJMgbNnedaE-13" value="" style="rounded=0;whiteSpace=wrap;html=1;" vertex="1" parent="1">
          <mxGeometry x="315" y="-140" width="120" height="80" as="geometry" />
        </mxCell>
        <mxCell id="HkIWx38XpdJMgbNnedaE-14" value="" style="rounded=1;whiteSpace=wrap;html=1;fillColor=#f8cecc;strokeColor=#b85450;" vertex="1" parent="1">
          <mxGeometry x="320" y="-90" width="110" height="20" as="geometry" />
        </mxCell>
        <mxCell id="HkIWx38XpdJMgbNnedaE-15" value="" style="rounded=1;whiteSpace=wrap;html=1;fillColor=#f8cecc;strokeColor=#b85450;" vertex="1" parent="1">
          <mxGeometry x="485" y="-90" width="110" height="20" as="geometry" />
        </mxCell>
        <mxCell id="HkIWx38XpdJMgbNnedaE-16" value="" style="ellipse;whiteSpace=wrap;html=1;aspect=fixed;fillColor=#f5f5f5;fontColor=#333333;strokeColor=#666666;" vertex="1" parent="1">
          <mxGeometry x="580" y="-82.5" width="5" height="5" as="geometry" />
        </mxCell>
        <mxCell id="HkIWx38XpdJMgbNnedaE-17" value="" style="ellipse;whiteSpace=wrap;html=1;aspect=fixed;fillColor=#f5f5f5;fontColor=#333333;strokeColor=#666666;" vertex="1" parent="1">
          <mxGeometry x="420" y="-82.5" width="5" height="5" as="geometry" />
        </mxCell>
        <mxCell id="HkIWx38XpdJMgbNnedaE-18" value="" style="endArrow=classic;html=1;rounded=0;entryX=0.903;entryY=0.093;entryDx=0;entryDy=0;entryPerimeter=0;exitX=0.5;exitY=1;exitDx=0;exitDy=0;dashed=1;strokeWidth=1;curved=1;startArrow=none;startFill=0;" edge="1" parent="1" target="HkIWx38XpdJMgbNnedaE-4">
          <mxGeometry width="50" height="50" relative="1" as="geometry">
            <mxPoint x="582.67" y="-77.5" as="sourcePoint" />
            <mxPoint x="584.9999999999999" y="42.31000000000005" as="targetPoint" />
          </mxGeometry>
        </mxCell>
        <mxCell id="HkIWx38XpdJMgbNnedaE-19" value="" style="endArrow=classic;html=1;rounded=0;entryX=0.5;entryY=0;entryDx=0;entryDy=0;exitX=0.417;exitY=-0.038;exitDx=0;exitDy=0;dashed=1;strokeWidth=1;curved=1;startArrow=none;startFill=0;exitPerimeter=0;" edge="1" parent="1" source="HkIWx38XpdJMgbNnedaE-4">
          <mxGeometry width="50" height="50" relative="1" as="geometry">
            <mxPoint x="420" y="45" as="sourcePoint" />
            <mxPoint x="422.98" y="-77.5" as="targetPoint" />
          </mxGeometry>
        </mxCell>
        <mxCell id="HkIWx38XpdJMgbNnedaE-20" style="edgeStyle=orthogonalEdgeStyle;rounded=0;orthogonalLoop=1;jettySize=auto;html=1;exitX=0.5;exitY=1;exitDx=0;exitDy=0;entryX=0.5;entryY=0;entryDx=0;entryDy=0;targetPerimeterSpacing=-8;sourcePerimeterSpacing=-1;jumpStyle=line;jumpSize=7;endArrow=open;endFill=0;endSize=4;startSize=21;" edge="1" parent="1" source="HkIWx38XpdJMgbNnedaE-21" target="HkIWx38XpdJMgbNnedaE-22">
          <mxGeometry relative="1" as="geometry" />
        </mxCell>
        <mxCell id="HkIWx38XpdJMgbNnedaE-21" value="" style="ellipse;whiteSpace=wrap;html=1;aspect=fixed;strokeColor=#000000;" vertex="1" parent="1">
          <mxGeometry x="537.5" y="-175" width="5" height="5" as="geometry" />
        </mxCell>
        <mxCell id="HkIWx38XpdJMgbNnedaE-22" value="" style="whiteSpace=wrap;html=1;aspect=fixed;strokeColor=#000000;" vertex="1" parent="1">
          <mxGeometry x="537.5" y="-146" width="6" height="6" as="geometry" />
        </mxCell>
        <mxCell id="HkIWx38XpdJMgbNnedaE-23" value="" style="rhombus;whiteSpace=wrap;html=1;" vertex="1" parent="1">
          <mxGeometry x="400" y="-146" width="12" height="12" as="geometry" />
        </mxCell>
        <mxCell id="HkIWx38XpdJMgbNnedaE-24" style="edgeStyle=orthogonalEdgeStyle;rounded=0;orthogonalLoop=1;jettySize=auto;html=1;exitX=0.5;exitY=0;exitDx=0;exitDy=0;" edge="1" parent="1" source="HkIWx38XpdJMgbNnedaE-25">
          <mxGeometry relative="1" as="geometry">
            <mxPoint x="405.9847328244275" y="-277.99236641221376" as="targetPoint" />
          </mxGeometry>
        </mxCell>
        <mxCell id="HkIWx38XpdJMgbNnedaE-25" value="" style="rhombus;whiteSpace=wrap;html=1;" vertex="1" parent="1">
          <mxGeometry x="400" y="-278" width="12" height="12" as="geometry" />
        </mxCell>
        <mxCell id="HkIWx38XpdJMgbNnedaE-26" value="" style="endArrow=none;html=1;rounded=0;exitX=0.5;exitY=0;exitDx=0;exitDy=0;entryX=0.5;entryY=1;entryDx=0;entryDy=0;" edge="1" parent="1" source="HkIWx38XpdJMgbNnedaE-23" target="HkIWx38XpdJMgbNnedaE-25">
          <mxGeometry width="50" height="50" relative="1" as="geometry">
            <mxPoint x="410" y="-200" as="sourcePoint" />
            <mxPoint x="460" y="-250" as="targetPoint" />
          </mxGeometry>
        </mxCell>
        <mxCell id="HkIWx38XpdJMgbNnedaE-27" value="" style="ellipse;whiteSpace=wrap;html=1;aspect=fixed;strokeColor=#000000;" vertex="1" parent="1">
          <mxGeometry x="372.5" y="-310" width="5" height="5" as="geometry" />
        </mxCell>
        <mxCell id="HkIWx38XpdJMgbNnedaE-28" value="" style="ellipse;whiteSpace=wrap;html=1;aspect=fixed;strokeColor=#000000;" vertex="1" parent="1">
          <mxGeometry x="520" y="-310" width="5" height="5" as="geometry" />
        </mxCell>
        <mxCell id="HkIWx38XpdJMgbNnedaE-29" value="" style="endArrow=none;html=1;rounded=0;entryX=0.667;entryY=0.301;entryDx=0;entryDy=0;entryPerimeter=0;" edge="1" parent="1">
          <mxGeometry width="50" height="50" relative="1" as="geometry">
            <mxPoint x="375" y="-282" as="sourcePoint" />
            <mxPoint x="522" y="-282" as="targetPoint" />
          </mxGeometry>
        </mxCell>
        <mxCell id="HkIWx38XpdJMgbNnedaE-30" value="" style="endArrow=open;html=1;rounded=0;entryX=0.5;entryY=1;entryDx=0;entryDy=0;endFill=0;endSize=4;" edge="1" parent="1" target="HkIWx38XpdJMgbNnedaE-28">
          <mxGeometry width="50" height="50" relative="1" as="geometry">
            <mxPoint x="522" y="-282" as="sourcePoint" />
            <mxPoint x="540" y="-320" as="targetPoint" />
          </mxGeometry>
        </mxCell>
        <mxCell id="HkIWx38XpdJMgbNnedaE-31" value="" style="endArrow=open;html=1;rounded=0;entryX=0.5;entryY=1;entryDx=0;entryDy=0;endFill=0;endSize=5;" edge="1" parent="1" target="HkIWx38XpdJMgbNnedaE-27">
          <mxGeometry width="50" height="50" relative="1" as="geometry">
            <mxPoint x="375" y="-282" as="sourcePoint" />
            <mxPoint x="420" y="-340" as="targetPoint" />
          </mxGeometry>
        </mxCell>
        <mxCell id="HkIWx38XpdJMgbNnedaE-32" value="" style="endArrow=none;html=1;rounded=0;entryX=0.497;entryY=-0.254;entryDx=0;entryDy=0;entryPerimeter=0;" edge="1" parent="1">
          <mxGeometry width="50" height="50" relative="1" as="geometry">
            <mxPoint x="406" y="-282" as="sourcePoint" />
            <mxPoint x="405.984" y="-277" as="targetPoint" />
          </mxGeometry>
        </mxCell>
        <mxCell id="HkIWx38XpdJMgbNnedaE-33" value="top_module_ram&amp;nbsp;" style="rounded=0;whiteSpace=wrap;html=1;fillColor=none;strokeColor=none;" vertex="1" parent="1">
          <mxGeometry x="190" y="-490" width="140" height="30" as="geometry" />
        </mxCell>
        <mxCell id="HkIWx38XpdJMgbNnedaE-34" value="agent_ram" style="text;strokeColor=none;align=center;fillColor=none;html=1;verticalAlign=middle;whiteSpace=wrap;rounded=0;" vertex="1" parent="1">
          <mxGeometry x="290" y="-270" width="60" height="30" as="geometry" />
        </mxCell>
        <mxCell id="HkIWx38XpdJMgbNnedaE-35" value="test_ram" style="text;strokeColor=none;align=center;fillColor=none;html=1;verticalAlign=middle;whiteSpace=wrap;rounded=0;" vertex="1" parent="1">
          <mxGeometry x="230" y="-440" width="60" height="30" as="geometry" />
        </mxCell>
        <mxCell id="HkIWx38XpdJMgbNnedaE-36" value="env_ram" style="text;strokeColor=none;align=center;fillColor=none;html=1;verticalAlign=middle;whiteSpace=wrap;rounded=0;" vertex="1" parent="1">
          <mxGeometry x="260" y="-400" width="60" height="30" as="geometry" />
        </mxCell>
        <mxCell id="HkIWx38XpdJMgbNnedaE-37" value="DUT_ram" style="text;strokeColor=none;align=center;fillColor=none;html=1;verticalAlign=middle;whiteSpace=wrap;rounded=0;" vertex="1" parent="1">
          <mxGeometry x="420" y="95" width="60" height="30" as="geometry" />
        </mxCell>
        <mxCell id="HkIWx38XpdJMgbNnedaE-38" value="ram_if" style="text;strokeColor=none;align=center;fillColor=none;html=1;verticalAlign=middle;whiteSpace=wrap;rounded=0;" vertex="1" parent="1">
          <mxGeometry x="417.5" y="40" width="60" height="30" as="geometry" />
        </mxCell>
        <mxCell id="HkIWx38XpdJMgbNnedaE-39" value="Virtual interface" style="text;strokeColor=none;align=center;fillColor=none;html=1;verticalAlign=middle;whiteSpace=wrap;rounded=0;" vertex="1" parent="1">
          <mxGeometry x="327.5" y="-95" width="90" height="30" as="geometry" />
        </mxCell>
        <mxCell id="HkIWx38XpdJMgbNnedaE-40" value="Virtual interface" style="text;strokeColor=none;align=center;fillColor=none;html=1;verticalAlign=middle;whiteSpace=wrap;rounded=0;" vertex="1" parent="1">
          <mxGeometry x="490" y="-95" width="90" height="30" as="geometry" />
        </mxCell>
        <mxCell id="HkIWx38XpdJMgbNnedaE-41" value="monitor_ram" style="text;strokeColor=none;align=center;fillColor=none;html=1;verticalAlign=middle;whiteSpace=wrap;rounded=0;" vertex="1" parent="1">
          <mxGeometry x="342.5" y="-134" width="60" height="30" as="geometry" />
        </mxCell>
        <mxCell id="HkIWx38XpdJMgbNnedaE-42" value="driver_ram" style="text;strokeColor=none;align=center;fillColor=none;html=1;verticalAlign=middle;whiteSpace=wrap;rounded=0;" vertex="1" parent="1">
          <mxGeometry x="505" y="-134" width="60" height="30" as="geometry" />
        </mxCell>
        <mxCell id="HkIWx38XpdJMgbNnedaE-43" value="sequencer_ram" style="text;strokeColor=none;align=center;fillColor=none;html=1;verticalAlign=middle;whiteSpace=wrap;rounded=0;" vertex="1" parent="1">
          <mxGeometry x="510" y="-220" width="60" height="30" as="geometry" />
        </mxCell>
        <mxCell id="HkIWx38XpdJMgbNnedaE-44" value="scoreboard_ram" style="text;strokeColor=none;align=center;fillColor=none;html=1;verticalAlign=middle;whiteSpace=wrap;rounded=0;" vertex="1" parent="1">
          <mxGeometry x="330" y="-355" width="60" height="30" as="geometry" />
        </mxCell>
        <mxCell id="HkIWx38XpdJMgbNnedaE-45" value="coverage collector_ram" style="text;strokeColor=none;align=center;fillColor=none;html=1;verticalAlign=middle;whiteSpace=wrap;rounded=0;" vertex="1" parent="1">
          <mxGeometry x="500" y="-355" width="110" height="30" as="geometry" />
        </mxCell>
        <mxCell id="HkIWx38XpdJMgbNnedaE-46" value="" style="ellipse;whiteSpace=wrap;html=1;" vertex="1" parent="1">
          <mxGeometry x="495" y="-435" width="85" height="30" as="geometry" />
        </mxCell>
        <mxCell id="HkIWx38XpdJMgbNnedaE-47" value="sequence" style="text;strokeColor=none;align=center;fillColor=none;html=1;verticalAlign=middle;whiteSpace=wrap;rounded=0;" vertex="1" parent="1">
          <mxGeometry x="507.5" y="-435" width="60" height="30" as="geometry" />
        </mxCell>
        <mxCell id="HkIWx38XpdJMgbNnedaE-48" value="" style="ellipse;whiteSpace=wrap;html=1;" vertex="1" parent="1">
          <mxGeometry x="545" y="-260" width="70" height="30" as="geometry" />
        </mxCell>
        <mxCell id="HkIWx38XpdJMgbNnedaE-49" value="" style="ellipse;whiteSpace=wrap;html=1;" vertex="1" parent="1">
          <mxGeometry x="547.5" y="-257" width="70" height="30" as="geometry" />
        </mxCell>
        <mxCell id="HkIWx38XpdJMgbNnedaE-50" value="" style="ellipse;whiteSpace=wrap;html=1;" vertex="1" parent="1">
          <mxGeometry x="550" y="-254" width="70" height="30" as="geometry" />
        </mxCell>
        <mxCell id="HkIWx38XpdJMgbNnedaE-51" value="seq_item" style="text;strokeColor=none;align=center;fillColor=none;html=1;verticalAlign=middle;whiteSpace=wrap;rounded=0;" vertex="1" parent="1">
          <mxGeometry x="557.5" y="-257" width="60" height="30" as="geometry" />
        </mxCell>
        <mxCell id="HkIWx38XpdJMgbNnedaE-52" value="" style="endArrow=none;html=1;rounded=0;exitX=1;exitY=0;exitDx=0;exitDy=0;entryX=1;entryY=0.5;entryDx=0;entryDy=0;curved=1;" edge="1" parent="1" source="HkIWx38XpdJMgbNnedaE-50" target="HkIWx38XpdJMgbNnedaE-46">
          <mxGeometry width="50" height="50" relative="1" as="geometry">
            <mxPoint x="670" y="-260" as="sourcePoint" />
            <mxPoint x="720" y="-310" as="targetPoint" />
            <Array as="points">
              <mxPoint x="650" y="-380" />
            </Array>
          </mxGeometry>
        </mxCell>
        <mxCell id="HkIWx38XpdJMgbNnedaE-53" value="" style="endArrow=classic;html=1;rounded=0;exitX=0.485;exitY=1.112;exitDx=0;exitDy=0;exitPerimeter=0;entryX=1;entryY=0;entryDx=0;entryDy=0;endSize=1;" edge="1" parent="1" source="HkIWx38XpdJMgbNnedaE-51" target="HkIWx38XpdJMgbNnedaE-43">
          <mxGeometry width="50" height="50" relative="1" as="geometry">
            <mxPoint x="630" y="-260" as="sourcePoint" />
            <mxPoint x="680" y="-310" as="targetPoint" />
          </mxGeometry>
        </mxCell>
      </root>
    </mxGraphModel>
  </diagram>
</mxfile>
